<?xml version="1.0" encoding="utf-8"?>
<!-- Generator: Adobe Illustrator 26.0.1, SVG Export Plug-In . SVG Version: 6.00 Build 0)  -->
<svg version="1.1" id="Ebene_1" xmlns="http://www.w3.org/2000/svg" xmlns:xlink="http://www.w3.org/1999/xlink" fill="#ee0000" x="0px" y="0px"
	 viewBox="0 0 240 70" style="enable-background:new 0 0 220 50;" xml:space="preserve">
<style type="text/css">
	.st0{fill:#FFFFFF;}
	.st1{enable-background:new    ;}
</style>
	<rect width="240" height="70" />
<g transform="translate(10,10)">
	<rect x="12.9" y="0.1" class="st0" width="25.8" height="7"/>
	<rect x="4.7" y="14.2" class="st0" width="39.9" height="7"/>
	<rect y="28.2" class="st0" width="35.2" height="7"/>
	<rect x="9.4" y="42.3" class="st0" width="30.5" height="7"/>
</g>
<g class="st1" transform="translate(10,10)">
	<path class="st0" d="M62.8,5.3l-4.3,15.1c-0.4,1.5-1.5,1.8-2.4,1.8c-0.9,0-1.9-0.3-2.4-1.8L49.5,5.3c0,0,0-0.1,0-0.1
		c0-0.2,0.2-0.4,0.4-0.4h1.3c0.2,0,0.4,0.2,0.4,0.3l4,14.8c0.1,0.3,0.2,0.5,0.5,0.5c0.2,0,0.3-0.2,0.4-0.5l4.1-14.8
		c0-0.2,0.2-0.3,0.4-0.3h1.4c0.2,0,0.4,0.2,0.4,0.4C62.8,5.2,62.8,5.2,62.8,5.3z"/>
	<path class="st0" d="M67.2,22H66c-0.2,0-0.4-0.2-0.4-0.5V5.2c0-0.2,0.2-0.4,0.4-0.4h1.3c0.2,0,0.4,0.2,0.4,0.4v16.3
		C67.7,21.7,67.5,22,67.2,22z"/>
	<path class="st0" d="M82.7,22h-1.5c-0.3,0-0.4,0-0.6-0.3l-4.2-6.9c-0.1,0-0.1,0-0.2,0c-0.1,0-0.3,0-0.4,0c-0.8,0-1.3,0-2.6-0.1v6.8
		c0,0.2-0.2,0.5-0.4,0.5h-1.3c-0.2,0-0.4-0.2-0.4-0.5V5.3c0-0.3,0.1-0.5,0.6-0.5c1-0.1,2.7-0.2,4.1-0.2c3.7,0,6.5,1.2,6.5,5v0.2
		c0,2.6-1.5,4.1-3.6,4.7l4.2,7c0,0.1,0.1,0.1,0.1,0.2C83,21.8,82.9,22,82.7,22z M80.3,9.6c0-2.3-1.5-3.1-4.4-3.1c-0.7,0-2,0-2.6,0.1
		v6.4c1,0,2,0,2.6,0c2.9,0,4.4-0.7,4.4-3.2V9.6z"/>
	<path class="st0" d="M96.1,6.5h-4.5v15c0,0.2-0.2,0.5-0.4,0.5h-1.3c-0.2,0-0.4-0.2-0.4-0.5v-15h-4.5c-0.3,0-0.5-0.1-0.5-0.4v-1
		c0-0.2,0.2-0.4,0.5-0.4h11.2c0.3,0,0.4,0.2,0.4,0.4v1C96.5,6.4,96.3,6.5,96.1,6.5z"/>
	<path class="st0" d="M105.1,22.1c-3.8,0-5.9-2-5.9-6.4V5.2c0-0.2,0.2-0.4,0.4-0.4h1.3c0.2,0,0.4,0.2,0.4,0.4v10.5
		c0,3,0.9,4.6,3.8,4.6c2.9,0,3.8-1.6,3.8-4.6V5.2c0-0.2,0.2-0.4,0.4-0.4h1.3c0.2,0,0.4,0.2,0.4,0.4v10.5
		C111,20.1,108.8,22.1,105.1,22.1z"/>
	<path class="st0" d="M123.8,22c-0.9,0.1-3.2,0.1-4.5,0.1c-3.2,0-4.9-1.2-4.9-4.3V8.9c0-3.1,1.7-4.3,4.9-4.3c1.4,0,3.5,0,4.5,0.1
		c0.1,0,0.2,0.2,0.2,0.3v1.2c0,0.2-0.1,0.3-0.3,0.3h-4.5c-2.5,0-2.9,0.6-2.9,2.4v3.2h7.1c0.3,0,0.5,0.2,0.5,0.5v0.9
		c0,0.3-0.2,0.5-0.5,0.5h-7.1v3.9c0,1.8,0.4,2.4,2.9,2.4h4.5c0.2,0,0.3,0.1,0.3,0.3v1.2C124,21.8,124,22,123.8,22z"/>
	<path class="st0" d="M136.4,21.9c-0.6,0.1-2.3,0.2-4.5,0.2c-2.5,0-4.9-0.5-4.9-4.3V5.2c0-0.3,0.2-0.5,0.5-0.5h1.2
		c0.3,0,0.5,0.2,0.5,0.5v12.6c0,1.8,0.4,2.4,2.9,2.4h4.5c0.2,0,0.3,0.1,0.3,0.3v1.1C136.6,21.7,136.5,21.9,136.4,21.9z"/>
	<path class="st0" d="M148.3,21.9c-0.6,0.1-2.3,0.2-4.5,0.2c-2.5,0-4.9-0.5-4.9-4.3V5.2c0-0.3,0.2-0.5,0.5-0.5h1.2
		c0.3,0,0.5,0.2,0.5,0.5v12.6c0,1.8,0.4,2.4,2.9,2.4h4.5c0.2,0,0.3,0.1,0.3,0.3v1.1C148.6,21.7,148.5,21.9,148.3,21.9z"/>
	<path class="st0" d="M160.3,22c-0.9,0.1-3.2,0.1-4.5,0.1c-3.2,0-4.9-1.2-4.9-4.3V8.9c0-3.1,1.7-4.3,4.9-4.3c1.4,0,3.5,0,4.5,0.1
		c0.1,0,0.2,0.2,0.2,0.3v1.2c0,0.2-0.1,0.3-0.3,0.3h-4.5c-2.5,0-2.9,0.6-2.9,2.4v3.2h7.1c0.3,0,0.5,0.2,0.5,0.5v0.9
		c0,0.3-0.2,0.5-0.5,0.5h-7.1v3.9c0,1.8,0.4,2.4,2.9,2.4h4.5c0.2,0,0.3,0.1,0.3,0.3v1.2C160.5,21.8,160.4,22,160.3,22z"/>
	<path class="st0" d="M167.5,22.1c-1.6,0-2.8-0.2-3.8-0.3c-0.4-0.1-0.4-0.2-0.4-0.4v-0.9c0-0.3,0.2-0.4,0.4-0.4c0,0,0,0,0.1,0
		c1.1,0.1,2.8,0.1,3.8,0.1c2.8,0,3.5-1.1,3.5-2.7c0-1.2-0.7-1.8-2.8-3.1L166,13c-2.1-1.3-3.2-2.5-3.2-4.3c0-2.8,2-4.1,5.5-4.1
		c1.4,0,3.2,0.1,4,0.3c0.2,0,0.4,0.2,0.4,0.4v1c0,0.2-0.2,0.4-0.4,0.4c0,0,0,0,0,0c-1-0.1-2.6-0.1-4-0.1C166,6.5,165,7,165,8.7
		c0,1.1,0.8,1.7,2.5,2.8l2.1,1.3c2.7,1.6,3.6,2.9,3.6,4.7C173.3,19.7,172.1,22.1,167.5,22.1z"/>
</g>
<g class="st1" transform="translate(10,10)">
	<path class="st0" d="M63.7,28.5l-5.5,7.8l5.5,8.3c0.1,0.1,0.1,0.2,0.1,0.3c0,0.1-0.1,0.2-0.3,0.2h-4c-0.3,0-0.4-0.1-0.5-0.3
		l-4.7-7.7v7.5c0,0.3-0.2,0.5-0.5,0.5h-3c-0.3,0-0.5-0.2-0.5-0.5V28.4c0-0.3,0.2-0.4,0.5-0.4h3c0.3,0,0.5,0.2,0.5,0.4v7.4l5.1-7.5
		c0.1-0.2,0.3-0.3,0.5-0.3h3.5c0.3,0,0.4,0.1,0.4,0.3C63.8,28.3,63.7,28.4,63.7,28.5z"/>
	<path class="st0" d="M79.7,45.2h-3.2c-0.2,0-0.4-0.2-0.5-0.4l-0.8-3.8h-4.8l-0.8,3.8c0,0.2-0.2,0.4-0.5,0.4h-3.2
		c-0.2,0-0.4-0.1-0.4-0.4c0,0,0-0.1,0-0.1L69,30.3c0.5-2.2,2.2-2.6,3.8-2.6c1.6,0,3.3,0.3,3.8,2.6l3.5,14.4c0,0,0,0.1,0,0.1
		C80.1,45,80,45.2,79.7,45.2z M73.1,31.4c0-0.2-0.1-0.3-0.3-0.3c-0.2,0-0.3,0.1-0.3,0.3l-1.4,6.4h3.5L73.1,31.4z"/>
	<path class="st0" d="M95.3,45.2h-3.5c-0.3,0-0.3-0.2-0.5-0.5l-3.1-5.9l-0.3,0c-0.5,0-1.2,0-1.6,0v5.9c0,0.3-0.2,0.5-0.5,0.5h-3
		c-0.3,0-0.5-0.2-0.5-0.5V29.1c0-0.8,0.3-1,1-1.1c1.1-0.2,3-0.3,4.7-0.3c3.9,0,7,1.3,7,5.4v0.3c0,2.5-1.3,4-3,4.6l3.5,6.5
		c0,0.1,0.1,0.2,0.1,0.3C95.7,45,95.6,45.2,95.3,45.2z M91.1,33.1c0-1.4-1.1-2.1-3-2.1c-0.3,0-1.5,0-1.8,0.1v4.5c0.3,0,1.4,0,1.6,0
		c2.4,0,3.2-0.6,3.2-2.2V33.1z"/>
	<path class="st0" d="M109.1,31.2h-3.8v13.5c0,0.3-0.2,0.5-0.5,0.5h-3c-0.3,0-0.5-0.2-0.5-0.5V31.2h-3.8c-0.3,0-0.5-0.2-0.5-0.4
		v-2.4c0-0.3,0.2-0.4,0.5-0.4h11.5c0.3,0,0.5,0.2,0.5,0.4v2.4C109.6,31,109.4,31.2,109.1,31.2z"/>
	<path class="st0" d="M121.9,45.1c-0.8,0.1-2,0.3-4.5,0.3c-3,0-5.6-0.8-5.6-5v-7.7c0-4.2,2.7-5,5.7-5c2.5,0,3.7,0.2,4.5,0.3
		c0.3,0,0.5,0.2,0.5,0.5v2.2c0,0.3-0.2,0.5-0.5,0.5h-4.7c-1.1,0-1.5,0.4-1.5,1.6v2.1h6c0.3,0,0.5,0.2,0.5,0.5v2.2
		c0,0.3-0.2,0.5-0.5,0.5h-6v2.5c0,1.2,0.4,1.6,1.5,1.6h4.7c0.3,0,0.5,0.2,0.5,0.5v2.2C122.4,44.9,122.2,45,121.9,45.1z"/>
	<path class="st0" d="M137.9,45.2h-2.3c-0.5,0-0.8-0.1-1.2-0.7l-5.3-9.1c-0.1-0.1-0.1-0.2-0.2-0.2s-0.1,0-0.1,0.2v9.4
		c0,0.3-0.2,0.5-0.5,0.5h-2.7c-0.3,0-0.5-0.2-0.5-0.5V28.8c0-0.5,0.4-0.9,0.9-0.9h2.3c0.5,0,0.7,0.2,1,0.7l5.5,9.6
		c0.1,0.1,0.1,0.2,0.2,0.2c0,0,0.1,0,0.1-0.2v-9.8c0-0.3,0.2-0.4,0.5-0.4h2.7c0.3,0,0.5,0.2,0.5,0.4v15.9
		C138.8,44.8,138.4,45.2,137.9,45.2z"/>
	<path class="st0" d="M152.1,31.1h-4.7c-1.1,0-1.5,0.4-1.5,1.6v2.1h6c0.3,0,0.5,0.2,0.5,0.5v2.2c0,0.3-0.2,0.5-0.5,0.5h-6v6.8
		c0,0.3-0.2,0.5-0.5,0.5h-3c-0.3,0-0.5-0.2-0.5-0.5v-12c0-4.2,2.7-5,5.7-5c2.5,0,3.7,0.2,4.5,0.3c0.3,0,0.5,0.2,0.5,0.5v2.2
		C152.6,30.9,152.4,31.1,152.1,31.1z"/>
	<path class="st0" d="M161.8,45.4c-3.8,0-6.9-2.1-6.9-7.4v-2.8c0-5.4,3-7.4,6.9-7.4s6.9,2.1,6.9,7.4v2.8
		C168.7,43.3,165.6,45.4,161.8,45.4z M164.7,35.2c0-2.8-0.9-4-2.9-4s-2.9,1.2-2.9,4v2.8c0,2.8,0.9,4,2.9,4s2.9-1.2,2.9-4V35.2z"/>
	<path class="st0" d="M184.4,45.2h-3.5c-0.3,0-0.3-0.2-0.5-0.5l-3.1-5.9l-0.3,0c-0.5,0-1.2,0-1.6,0v5.9c0,0.3-0.2,0.5-0.5,0.5h-3
		c-0.3,0-0.5-0.2-0.5-0.5V29.1c0-0.8,0.3-1,1-1.1c1.1-0.2,3-0.3,4.7-0.3c3.9,0,7,1.3,7,5.4v0.3c0,2.5-1.3,4-3,4.6l3.5,6.5
		c0,0.1,0.1,0.2,0.1,0.3C184.8,45,184.7,45.2,184.4,45.2z M180.2,33.1c0-1.4-1.1-2.1-3-2.1c-0.3,0-1.5,0-1.8,0.1v4.5
		c0.3,0,1.4,0,1.6,0c2.4,0,3.2-0.6,3.2-2.2V33.1z"/>
	<path class="st0" d="M193.5,45.4c-3.7,0-6.7-1.4-6.7-6.7V28.4c0-0.3,0.2-0.4,0.5-0.4h3c0.3,0,0.5,0.2,0.5,0.4v10.3
		c0,2.4,0.6,3.4,2.7,3.4c2.1,0,2.7-1,2.7-3.4V28.4c0-0.3,0.2-0.4,0.5-0.4h3c0.3,0,0.5,0.2,0.5,0.4v10.3
		C200.2,44,197.2,45.4,193.5,45.4z"/>
	<path class="st0" d="M218.6,45.2h-3.1c-0.2,0-0.4-0.2-0.4-0.5V35c0-0.2-0.1-0.2-0.1-0.2c-0.1,0-0.1,0-0.2,0.2l-2.1,3.8
		c-0.2,0.3-0.4,0.4-0.7,0.4h-1.9c-0.3,0-0.5-0.1-0.7-0.4l-2.1-3.8c-0.1-0.1-0.1-0.2-0.2-0.2c0,0-0.1,0-0.1,0.2v9.7
		c0,0.3-0.2,0.5-0.4,0.5h-3.1c-0.2,0-0.4-0.1-0.4-0.3V28.7c0-0.5,0.3-0.8,0.8-0.8h2.2c0.5,0,0.8,0.2,1,0.6l3.5,6.6
		c0.1,0.2,0.2,0.3,0.3,0.3c0.1,0,0.2-0.1,0.3-0.3l3.5-6.6c0.2-0.4,0.5-0.6,1-0.6h2.2c0.5,0,0.8,0.3,0.8,0.8v16.1
		C219,45.1,218.8,45.2,218.6,45.2z"/>
</g>
</svg>
